<mxfile host="app.diagrams.net" agent="Mozilla/5.0 (X11; Ubuntu; Linux x86_64; rv:141.0) Gecko/20100101 Firefox/141.0" version="28.0.7">
  <diagram name="Page-1" id="IBkn1AV6_XAYANT_Cgsg">
    <mxGraphModel dx="2011" dy="1200" grid="1" gridSize="10" guides="1" tooltips="1" connect="1" arrows="1" fold="1" page="1" pageScale="1" pageWidth="850" pageHeight="1100" math="0" shadow="0">
      <root>
        <mxCell id="0" />
        <mxCell id="1" parent="0" />
        <mxCell id="dDHguk34ElmMT3qhyhON-1" value="Client" style="shape=umlActor;verticalLabelPosition=bottom;verticalAlign=top;html=1;outlineConnect=0;" parent="1" vertex="1">
          <mxGeometry x="10" y="480" width="30" height="60" as="geometry" />
        </mxCell>
        <mxCell id="dDHguk34ElmMT3qhyhON-2" value="LB" style="rounded=1;whiteSpace=wrap;html=1;" parent="1" vertex="1">
          <mxGeometry x="120" y="140" width="40" height="680" as="geometry" />
        </mxCell>
        <mxCell id="cQGHiPyzRJz7bQC3EvLL-1" value="Files Object Store" style="shape=cylinder3;whiteSpace=wrap;html=1;boundedLbl=1;backgroundOutline=1;size=15;" parent="1" vertex="1">
          <mxGeometry x="280" y="40" width="140" height="80" as="geometry" />
        </mxCell>
        <mxCell id="cQGHiPyzRJz7bQC3EvLL-2" style="edgeStyle=orthogonalEdgeStyle;rounded=0;orthogonalLoop=1;jettySize=auto;html=1;entryX=0.5;entryY=0;entryDx=0;entryDy=0;entryPerimeter=0;startArrow=classic;startFill=1;" parent="1" source="cQGHiPyzRJz7bQC3EvLL-1" target="dDHguk34ElmMT3qhyhON-1" edge="1">
          <mxGeometry relative="1" as="geometry">
            <Array as="points">
              <mxPoint x="25" y="70" />
            </Array>
          </mxGeometry>
        </mxCell>
        <mxCell id="KC0I90stS5oIT5MQX-iv-1" value="Storage service" style="rounded=1;whiteSpace=wrap;html=1;" vertex="1" parent="1">
          <mxGeometry x="200" y="180" width="120" height="60" as="geometry" />
        </mxCell>
        <mxCell id="KC0I90stS5oIT5MQX-iv-6" style="edgeStyle=orthogonalEdgeStyle;rounded=0;orthogonalLoop=1;jettySize=auto;html=1;entryX=0;entryY=0.5;entryDx=0;entryDy=0;exitX=1;exitY=0.5;exitDx=0;exitDy=0;exitPerimeter=0;" edge="1" parent="1" source="KC0I90stS5oIT5MQX-iv-17" target="KC0I90stS5oIT5MQX-iv-5">
          <mxGeometry relative="1" as="geometry" />
        </mxCell>
        <mxCell id="KC0I90stS5oIT5MQX-iv-2" value="Chunks MongoDB" style="shape=cylinder3;whiteSpace=wrap;html=1;boundedLbl=1;backgroundOutline=1;size=15;" vertex="1" parent="1">
          <mxGeometry x="400" y="170" width="80" height="80" as="geometry" />
        </mxCell>
        <mxCell id="KC0I90stS5oIT5MQX-iv-3" style="edgeStyle=orthogonalEdgeStyle;rounded=0;orthogonalLoop=1;jettySize=auto;html=1;entryX=0;entryY=0.5;entryDx=0;entryDy=0;entryPerimeter=0;startArrow=classic;startFill=1;" edge="1" parent="1" source="KC0I90stS5oIT5MQX-iv-1" target="KC0I90stS5oIT5MQX-iv-2">
          <mxGeometry relative="1" as="geometry" />
        </mxCell>
        <mxCell id="KC0I90stS5oIT5MQX-iv-4" value="&lt;div&gt;User file mapping&lt;/div&gt;&lt;div&gt;File chunk mapping&lt;/div&gt;" style="text;html=1;align=center;verticalAlign=middle;resizable=0;points=[];autosize=1;strokeColor=none;fillColor=none;" vertex="1" parent="1">
          <mxGeometry x="460" y="105" width="130" height="40" as="geometry" />
        </mxCell>
        <mxCell id="KC0I90stS5oIT5MQX-iv-5" value="CDC on File ACL" style="shape=process;whiteSpace=wrap;html=1;backgroundOutline=1;" vertex="1" parent="1">
          <mxGeometry x="560" y="590" width="120" height="60" as="geometry" />
        </mxCell>
        <mxCell id="KC0I90stS5oIT5MQX-iv-9" style="edgeStyle=orthogonalEdgeStyle;rounded=0;orthogonalLoop=1;jettySize=auto;html=1;entryX=0.5;entryY=1;entryDx=0;entryDy=0;entryPerimeter=0;exitX=0.5;exitY=1;exitDx=0;exitDy=0;" edge="1" parent="1" source="KC0I90stS5oIT5MQX-iv-5" target="KC0I90stS5oIT5MQX-iv-17">
          <mxGeometry relative="1" as="geometry">
            <mxPoint x="430" y="310" as="targetPoint" />
            <mxPoint x="560" y="710" as="sourcePoint" />
            <Array as="points">
              <mxPoint x="620" y="720" />
              <mxPoint x="440" y="720" />
            </Array>
          </mxGeometry>
        </mxCell>
        <mxCell id="KC0I90stS5oIT5MQX-iv-10" value="Builds User Shared files mapping" style="text;html=1;align=center;verticalAlign=middle;resizable=0;points=[];autosize=1;strokeColor=none;fillColor=none;" vertex="1" parent="1">
          <mxGeometry x="360" y="750" width="200" height="30" as="geometry" />
        </mxCell>
        <mxCell id="KC0I90stS5oIT5MQX-iv-16" value="" style="edgeStyle=orthogonalEdgeStyle;rounded=0;orthogonalLoop=1;jettySize=auto;html=1;startArrow=classic;startFill=1;" edge="1" parent="1" source="KC0I90stS5oIT5MQX-iv-11" target="KC0I90stS5oIT5MQX-iv-13">
          <mxGeometry relative="1" as="geometry" />
        </mxCell>
        <mxCell id="KC0I90stS5oIT5MQX-iv-11" value="Event Service" style="rounded=1;whiteSpace=wrap;html=1;" vertex="1" parent="1">
          <mxGeometry x="200" y="330" width="120" height="60" as="geometry" />
        </mxCell>
        <mxCell id="KC0I90stS5oIT5MQX-iv-13" value="File Events DB" style="shape=cylinder3;whiteSpace=wrap;html=1;boundedLbl=1;backgroundOutline=1;size=15;" vertex="1" parent="1">
          <mxGeometry x="400" y="320" width="80" height="80" as="geometry" />
        </mxCell>
        <mxCell id="KC0I90stS5oIT5MQX-iv-18" value="" style="edgeStyle=orthogonalEdgeStyle;rounded=0;orthogonalLoop=1;jettySize=auto;html=1;" edge="1" parent="1" source="KC0I90stS5oIT5MQX-iv-15" target="KC0I90stS5oIT5MQX-iv-17">
          <mxGeometry relative="1" as="geometry" />
        </mxCell>
        <mxCell id="KC0I90stS5oIT5MQX-iv-15" value="Files Service" style="rounded=1;whiteSpace=wrap;html=1;" vertex="1" parent="1">
          <mxGeometry x="200" y="520" width="120" height="60" as="geometry" />
        </mxCell>
        <mxCell id="KC0I90stS5oIT5MQX-iv-17" value="ACL DB" style="shape=cylinder3;whiteSpace=wrap;html=1;boundedLbl=1;backgroundOutline=1;size=15;" vertex="1" parent="1">
          <mxGeometry x="400" y="580" width="80" height="80" as="geometry" />
        </mxCell>
        <mxCell id="KC0I90stS5oIT5MQX-iv-24" style="edgeStyle=orthogonalEdgeStyle;rounded=0;orthogonalLoop=1;jettySize=auto;html=1;exitX=1;exitY=0.5;exitDx=0;exitDy=0;exitPerimeter=0;entryX=0;entryY=0.5;entryDx=0;entryDy=0;" edge="1" parent="1" source="KC0I90stS5oIT5MQX-iv-21" target="KC0I90stS5oIT5MQX-iv-23">
          <mxGeometry relative="1" as="geometry" />
        </mxCell>
        <mxCell id="KC0I90stS5oIT5MQX-iv-21" value="User Files DB" style="shape=cylinder3;whiteSpace=wrap;html=1;boundedLbl=1;backgroundOutline=1;size=15;" vertex="1" parent="1">
          <mxGeometry x="400" y="440" width="80" height="80" as="geometry" />
        </mxCell>
        <mxCell id="KC0I90stS5oIT5MQX-iv-22" style="edgeStyle=orthogonalEdgeStyle;rounded=0;orthogonalLoop=1;jettySize=auto;html=1;entryX=0;entryY=0.5;entryDx=0;entryDy=0;entryPerimeter=0;startArrow=classic;startFill=1;" edge="1" parent="1" source="KC0I90stS5oIT5MQX-iv-15" target="KC0I90stS5oIT5MQX-iv-21">
          <mxGeometry relative="1" as="geometry" />
        </mxCell>
        <mxCell id="KC0I90stS5oIT5MQX-iv-23" value="CDC on File mapping" style="shape=process;whiteSpace=wrap;html=1;backgroundOutline=1;" vertex="1" parent="1">
          <mxGeometry x="560" y="450" width="120" height="60" as="geometry" />
        </mxCell>
        <mxCell id="KC0I90stS5oIT5MQX-iv-25" style="edgeStyle=orthogonalEdgeStyle;rounded=0;orthogonalLoop=1;jettySize=auto;html=1;entryX=1;entryY=0.5;entryDx=0;entryDy=0;entryPerimeter=0;" edge="1" parent="1" source="KC0I90stS5oIT5MQX-iv-23" target="KC0I90stS5oIT5MQX-iv-13">
          <mxGeometry relative="1" as="geometry">
            <Array as="points">
              <mxPoint x="620" y="360" />
            </Array>
          </mxGeometry>
        </mxCell>
        <mxCell id="KC0I90stS5oIT5MQX-iv-26" style="edgeStyle=orthogonalEdgeStyle;rounded=0;orthogonalLoop=1;jettySize=auto;html=1;entryX=1;entryY=0;entryDx=0;entryDy=27.5;entryPerimeter=0;exitX=1;exitY=0.5;exitDx=0;exitDy=0;" edge="1" parent="1" source="KC0I90stS5oIT5MQX-iv-5" target="KC0I90stS5oIT5MQX-iv-13">
          <mxGeometry relative="1" as="geometry">
            <mxPoint x="760" y="650" as="sourcePoint" />
            <Array as="points">
              <mxPoint x="740" y="620" />
              <mxPoint x="740" y="348" />
            </Array>
          </mxGeometry>
        </mxCell>
        <mxCell id="KC0I90stS5oIT5MQX-iv-27" value="&lt;div&gt;File uploaded event&lt;/div&gt;&lt;div&gt;File deleted event&lt;/div&gt;" style="text;html=1;align=center;verticalAlign=middle;resizable=0;points=[];autosize=1;strokeColor=none;fillColor=none;" vertex="1" parent="1">
          <mxGeometry x="480" y="370" width="130" height="40" as="geometry" />
        </mxCell>
        <mxCell id="KC0I90stS5oIT5MQX-iv-28" value="&lt;div&gt;File access added&lt;/div&gt;&lt;div&gt;File access modified&lt;/div&gt;&lt;div&gt;File access removed&lt;/div&gt;" style="text;html=1;align=center;verticalAlign=middle;resizable=0;points=[];autosize=1;strokeColor=none;fillColor=none;" vertex="1" parent="1">
          <mxGeometry x="480" y="280" width="130" height="60" as="geometry" />
        </mxCell>
      </root>
    </mxGraphModel>
  </diagram>
</mxfile>
